<?xml version="1.0" encoding="UTF-8"?>
<svg version="1.1" xmlns="http://www.w3.org/2000/svg" width="532" height="451">
<path d="M0 0 C175.56 0 351.12 0 532 0 C532 148.83 532 297.66 532 451 C356.44 451 180.88 451 0 451 C0 302.17 0 153.34 0 0 Z " fill="#3AB0DE" transform="translate(0,0)"/>
<path d="M0 0 C175.56 0 351.12 0 532 0 C532 148.83 532 297.66 532 451 C356.44 451 180.88 451 0 451 C0 302.17 0 153.34 0 0 Z M197 29 C195.99018066 29.36339478 195.99018066 29.36339478 194.95996094 29.73413086 C191.21865684 31.10074369 187.65362362 32.57551003 184.125 34.4375 C180.93806761 36.07676931 177.80735773 37.47458007 174.4375 38.6875 C160.29908953 44.24108533 147.78747755 53.59800933 136 63 C135.14196777 63.68231689 135.14196777 63.68231689 134.26660156 64.37841797 C110.33707725 83.58519452 90.69416938 107.94935824 78 136 C77.52433594 136.98871094 77.04867187 137.97742188 76.55859375 138.99609375 C71.39543751 150.22562154 68.22660593 162.09881089 65 174 C64.73493652 174.9290918 64.46987305 175.85818359 64.19677734 176.81542969 C60.36460956 190.90915774 59.5544808 205.39788392 59.5625 219.9375 C59.56209717 220.70058472 59.56169434 221.46366943 59.5612793 222.24987793 C59.64615933 250.61883446 63.30134791 280.45910458 77.60449219 305.421875 C79.45506709 308.84071177 80.86166941 312.37360076 82.23828125 316.00390625 C82.9736251 318.02969771 82.9736251 318.02969771 84 320 C84.66 320 85.32 320 86 320 C86.26941406 320.886875 86.53882812 321.77375 86.81640625 322.6875 C90.61384946 333.31532787 98.93489269 342.34116936 106 351 C106.45955078 351.56541504 106.91910156 352.13083008 107.39257812 352.71337891 C127.87672329 377.794073 154.27794349 398.92465047 185 410 C186.543909 410.64045437 188.08593317 411.28549532 189.625 411.9375 C194.96073386 414.10332665 200.43587048 415.59328283 205.99609375 417.0703125 C209 418 209 418 212 420 C228.2050837 425.28140631 245.39807998 425.49827785 262.25 425.5 C263.21468201 425.50412903 264.17936401 425.50825806 265.17327881 425.51251221 C275.65011039 425.53276568 285.59078241 425.13854572 295.81201172 422.73632812 C299.15475666 421.96425593 302.47609806 421.45724792 305.875 421 C310.24302344 420.34955583 314.19366201 419.4489635 318.328125 417.91796875 C320.64155373 417.1231504 322.93913344 416.44688339 325.296875 415.80078125 C326.45461426 415.47944214 326.45461426 415.47944214 327.63574219 415.15161133 C329.19633853 414.72149654 330.75949624 414.30055648 332.32519531 413.8894043 C334.24522983 413.35249298 336.12781022 412.68535519 338 412 C338.33 411.01 338.66 410.02 339 409 C341.31 408.67 343.62 408.34 346 408 C346 407.34 346 406.68 346 406 C346.73919678 405.8764917 347.47839355 405.7529834 348.23999023 405.62573242 C352.5912455 404.63924262 356.18132171 402.4625835 360.0625 400.3125 C360.93285889 399.83135742 361.80321777 399.35021484 362.69995117 398.85449219 C369.29129504 395.12990107 375.59937346 391.07351643 381.8125 386.75 C382.62920166 386.18450439 383.44590332 385.61900879 384.28735352 385.03637695 C388.75947307 381.85471054 392.70949063 378.49499482 396.5144043 374.54003906 C398.24988537 372.74095695 400.09117948 371.11262423 402 369.5 C408.54872643 363.83453147 414.45818353 357.65292324 420 351 C420.56203125 350.36449219 421.1240625 349.72898437 421.703125 349.07421875 C423.34637376 346.44601064 423.27896664 345.06750137 423 342 C421.96713699 339.72151121 421.96713699 339.72151121 420.4453125 337.57421875 C419.91292969 336.77822266 419.38054687 335.98222656 418.83203125 335.16210938 C418.26871094 334.34548828 417.70539063 333.52886719 417.125 332.6875 C416.56941406 331.85154297 416.01382812 331.01558594 415.44140625 330.15429688 C413.32839701 326.99578699 413.32839701 326.99578699 411 324 C410.34 324 409.68 324 409 324 C409.45822468 320.53058454 409.89131683 317.32604951 411 314 C411.99 313.67 412.98 313.34 414 313 C414.71171991 311.13597165 415.41185985 309.26653448 416.046875 307.375 C417.11759802 304.70696886 418.50735916 302.47825276 420.0625 300.0625 C422.97379242 295.40298732 424.1282833 291.40464357 425 286 C425.66 286 426.32 286 427 286 C427.26554687 285.09636719 427.53109375 284.19273437 427.8046875 283.26171875 C428.15789062 282.08222656 428.51109375 280.90273438 428.875 279.6875 C429.22304688 278.51574219 429.57109375 277.34398437 429.9296875 276.13671875 C431 273 431 273 433 270 C433.61837036 267.34781519 434.15514544 264.74019157 434.625 262.0625 C434.7590625 261.34642578 434.893125 260.63035156 435.03125 259.89257812 C435.64416965 256.5183929 436 253.44160369 436 250 C437.134375 249.938125 438.26875 249.87625 439.4375 249.8125 C448.15260432 248.87824082 456.71989129 245.76003624 465 243 C465 229.14 465 215.28 465 201 C450.76461851 196.25697017 450.76461851 196.25697017 436 195 C435.855625 194.01 435.71125 193.02 435.5625 192 C435.46839844 191.35933594 435.37429688 190.71867188 435.27734375 190.05859375 C435.00890576 188.06610335 434.8156129 186.06393541 434.625 184.0625 C434.19600563 180.55681162 433.14941326 177.53582098 431.8125 174.2578125 C430.84962866 171.58214118 430.24928026 168.89879069 429.625 166.125 C428.41375131 161.04929119 426.5968315 156.79001666 424.140625 152.203125 C422.76974108 149.55525332 421.82814565 146.86086681 421 144 C420.34 144 419.68 144 419 144 C418.72736328 143.07767578 418.72736328 143.07767578 418.44921875 142.13671875 C418.19785156 141.32847656 417.94648438 140.52023438 417.6875 139.6875 C417.44386719 138.88699219 417.20023437 138.08648437 416.94921875 137.26171875 C415.94144492 134.86047987 414.87034009 133.76346352 413 132 C409.97033159 126.15706806 409.97033159 126.15706806 410.0625 122.5625 C412.77602046 115.14554409 416.88859243 109.10952719 421.48828125 102.734375 C423.17432403 100.22149263 423.17432403 100.22149263 422.96484375 97.94921875 C412.34624319 76.49706619 384.45555341 57.03288747 364 46 C363.34 46 362.68 46 362 46 C362 45.34 362 44.68 362 44 C354.39724214 39.83655037 354.39724214 39.83655037 346 38 C346 37.34 346 36.68 346 36 C300.15709586 18.19248417 244.24335918 11.73696268 197 29 Z " fill="#000000" transform="translate(0,0)"/>
<path d="M0 0 C2.07482757 -0.02061666 4.14965705 -0.04104166 6.2244873 -0.06138611 C7.37990776 -0.0727809 8.53532822 -0.0841757 9.72576141 -0.09591579 C23.38341217 -0.21723314 36.93062481 0.19892701 50.54760742 1.24462891 C56.56880655 1.69778561 62.48099272 2.06241559 68.51953125 1.86328125 C83.60450579 1.44425418 83.60450579 1.44425418 89.31201172 6.59863281 C97.73499105 16.27147359 96.84264241 30.26408239 96.96337891 42.35498047 C96.99782791 45.78380472 97.10325568 49.2024612 97.23046875 52.62890625 C97.28313916 54.60665628 97.33158513 56.58452515 97.375 58.5625 C97.40166748 59.46548828 97.42833496 60.36847656 97.45581055 61.29882812 C97.46828891 67.42629944 97.46828891 67.42629944 95.0390625 70.40234375 C94.36617188 70.92957031 93.69328125 71.45679688 93 72 C92.505 73.485 92.505 73.485 92 75 C92.556875 75.20625 93.11375 75.4125 93.6875 75.625 C96.94613412 77.56256623 99.19686434 79.68790937 101 83 C101.81001872 86.87297177 101.86680982 90.69650324 101.91015625 94.64453125 C101.94223427 96.33107063 101.94223427 96.33107063 101.97496033 98.05168152 C102.00897079 100.42598196 102.02913605 102.80051585 102.03637695 105.17504883 C102.06236179 108.79325497 102.17885641 112.40142877 102.29882812 116.01757812 C102.58876773 133.96716333 102.58876773 133.96716333 98.28857422 138.60693359 C95.46253547 140.97456829 92.39072599 142.55326147 89 144 C88.67 144.33 88.34 144.66 88 145 C77.6132435 146.13376239 67.08431295 146.25266567 56.64624023 146.50268555 C54.25551965 146.56084527 51.86510678 146.62672962 49.47460938 146.69335938 C32.65247157 147.12940215 15.82631237 147.04194846 -1 147 C-1.02361113 132.26322053 -1.04111501 117.52644256 -1.05181217 102.78964806 C-1.05691634 95.9434177 -1.06384324 89.09719926 -1.07543945 82.25097656 C-1.08666912 75.6178554 -1.09231955 68.98474316 -1.09487724 62.35161209 C-1.09669493 59.847681 -1.10024191 57.34375041 -1.10573006 54.83982468 C-1.14417305 36.53691133 -0.71712347 18.28634148 0 0 Z " fill="#000203" transform="translate(200,143)"/>
<path d="M0 0 C2.34466551 -0.06177024 4.68939214 -0.12127291 7.03417969 -0.17822266 C8.11012894 -0.22793213 9.18607819 -0.2776416 10.29463196 -0.32885742 C17.49920219 -0.43826151 17.49920219 -0.43826151 20.60369873 1.60848999 C24.19760774 5.2158096 27.59277344 10.00933207 27.59277344 15.28271484 C28.25277344 15.28271484 28.91277344 15.28271484 29.59277344 15.28271484 C29.60823463 16.18329369 29.60823463 16.18329369 29.62400818 17.10206604 C29.73410652 23.48013923 29.84847873 29.85812659 29.96508789 36.23608398 C30.00780085 38.60097417 30.04950462 40.96588285 30.09008789 43.33081055 C30.29261511 55.09489135 30.53633981 66.84349305 31.12402344 78.59521484 C31.80672968 92.63229121 31.70162575 106.67021813 31.65527344 120.72021484 C31.64965668 123.40966647 31.64556744 126.09911971 31.64160156 128.78857422 C31.63160142 135.28666358 31.61200489 141.78462052 31.59277344 148.28271484 C18.72277344 148.28271484 5.85277344 148.28271484 -7.40722656 148.28271484 C-7.73722656 133.43271484 -8.06722656 118.58271484 -8.40722656 103.28271484 C-17.97722656 103.61271484 -27.54722656 103.94271484 -37.40722656 104.28271484 C-37.36597656 107.10833984 -37.32472656 109.93396484 -37.28222656 112.84521484 C-37.20223528 124.39224858 -38.23260431 135.80515596 -39.40722656 147.28271484 C-51.40767277 148.49061781 -63.35790964 148.38308721 -75.40722656 148.28271484 C-75.66773353 115.46685285 -74.44721073 82.81624445 -72.51147461 50.05834961 C-72.44792282 48.97747574 -72.38437103 47.89660187 -72.31889343 46.78297424 C-72.19130221 44.65398813 -72.05930387 42.52526111 -71.92268372 40.39683533 C-71.61094224 35.43454181 -71.37286007 30.49743388 -71.33691406 25.52490234 C-71.32116333 24.62155151 -71.3054126 23.71820068 -71.28918457 22.78747559 C-71.26473463 21.12464559 -71.2664014 19.46109835 -71.30163574 17.79846191 C-71.19216692 12.28594627 -69.5469489 8.80005372 -65.67654419 4.84411621 C-61.28882748 1.82515281 -56.57090316 1.95911337 -51.38769531 1.84521484 C-49.63057976 1.76231201 -49.63057976 1.76231201 -47.83796692 1.67773438 C-44.09072023 1.51029922 -40.34394949 1.39632034 -36.59472656 1.28271484 C-34.14861618 1.17801814 -31.70264666 1.06997393 -29.25683594 0.95849609 C-23.1868687 0.69573199 -17.11826981 0.51637212 -11.04431152 0.37664795 C-7.36127131 0.28152798 -3.68153165 0.14111015 0 0 Z " fill="#010303" transform="translate(158.4072265625,141.71728515625)"/>
<path d="M0 0 C11.61343656 -0.16234294 23.22660227 -0.28664691 34.84094334 -0.3626852 C40.23429567 -0.39918421 45.62687052 -0.44867407 51.01977539 -0.52807617 C56.22642062 -0.60425428 61.43231909 -0.64601536 66.63947868 -0.6641407 C68.62385754 -0.67705361 70.60819648 -0.70227065 72.59225655 -0.7401104 C75.37692994 -0.79109682 78.15853685 -0.79791706 80.94360352 -0.79467773 C81.76000305 -0.81984467 82.57640259 -0.8450116 83.4175415 -0.87094116 C88.20634797 -0.81085351 90.49606536 0.0129896 93.91490173 3.45120239 C94.45481719 4.07544161 94.99473265 4.69968082 95.55100918 5.34283638 C97.0092119 7.16180768 97.0092119 7.16180768 99.41796875 8.57543945 C101 10 101 10 101.42578125 12.63354492 C101.38839844 13.67615479 101.35101563 14.71876465 101.3125 15.79296875 C101.27640625 16.9536084 101.2403125 18.11424805 101.203125 19.31005859 C100.8723838 25.31825867 100.48500307 31.31470358 100 37.3125 C99.67 41.499375 99.34 45.68625 99 50 C87.45 50 75.9 50 64 50 C61 33 61 33 61 29 C52.42 29 43.84 29 35 29 C35.66 59.03 36.32 89.06 37 120 C45.25 120.66 53.5 121.32 62 122 C62 118.37 62 114.74 62 111 C63 106.3125 63 106.3125 64 103 C72.47585694 102.88597502 80.90867419 103.01422387 89.375 103.4375 C90.21329346 103.47673584 91.05158691 103.51597168 91.9152832 103.55639648 C97.87802266 103.87802266 97.87802266 103.87802266 99 105 C99.29362441 109.21518289 99.3144269 113.43679603 99.35009766 117.66088867 C99.36647325 119.07577168 99.39351247 120.49057857 99.43212891 121.9050293 C99.48800582 123.96445781 99.50894914 126.02193828 99.5234375 128.08203125 C99.5531665 129.92631714 99.5531665 129.92631714 99.58349609 131.80786133 C99.19423571 137.57926475 96.37684149 142.81323501 94 148 C82.82947769 148.13939052 71.65916433 148.24581881 60.48794746 148.31087303 C55.29991936 148.3421056 50.1124889 148.38443027 44.92480469 148.45263672 C39.91267956 148.51811804 34.90112709 148.5537667 29.88860703 148.56926346 C27.98209501 148.58029835 26.07561221 148.60184695 24.16934586 148.63438034 C4.7845547 148.95187341 4.7845547 148.95187341 -1.39718628 144.31567383 C-5.13742067 138.91194988 -4.31925129 132.0119033 -4.1953125 125.70703125 C-4.19932812 124.05966591 -4.20778013 122.41230616 -4.22038269 120.76498413 C-4.24189334 116.35715382 -4.2027781 111.95181048 -4.15121841 107.54430771 C-4.10751094 102.99024079 -4.11703749 98.43630886 -4.12182617 93.88208008 C-4.12369306 86.62842714 -4.09467144 79.37554323 -4.04541016 72.12207031 C-3.98860427 63.32625606 -4.04904981 54.53734199 -4.16796875 45.7421875 C-4.20613297 42.2877255 -4.24214821 38.83325015 -4.27703857 35.37875366 C-4.30043873 33.27292095 -4.32853737 31.16713453 -4.3616333 29.06143188 C-4.40284251 26.18002192 -4.41786272 23.29963585 -4.42578125 20.41796875 C-4.4431987 19.61314056 -4.46061615 18.80831238 -4.4785614 17.97909546 C-4.45431351 11.43578326 -2.48973993 6.00743681 0 0 Z " fill="#020304" transform="translate(312,142)"/>
<path d="M0 0 C8.58 0 17.16 0 26 0 C27.485 10.395 27.485 10.395 29 21 C40.55 21 52.1 21 64 21 C64 17.04 64 13.08 64 9 C64.33 9 64.66 9 65 9 C65 12.63 65 16.26 65 20 C66.40894531 20.13277344 67.81789063 20.26554687 69.26953125 20.40234375 C71.11720519 20.58054581 72.96486049 20.75894128 74.8125 20.9375 C75.74126953 21.02451172 76.67003906 21.11152344 77.62695312 21.20117188 C78.51962891 21.28818359 79.41230469 21.37519531 80.33203125 21.46484375 C81.15421143 21.543396 81.9763916 21.62194824 82.82348633 21.70288086 C85 22 85 22 88 23 C87.505 20.03 87.505 20.03 87 17 C89 20 89 20 89 24 C89.58265625 24.03738281 90.1653125 24.07476562 90.765625 24.11328125 C100.18605574 24.86869315 108.93699166 27.41056905 118 30 C118 43.86 118 57.72 118 72 C96.56792144 79.14402619 96.56792144 79.14402619 89 79 C88.96261719 79.58265625 88.92523438 80.1653125 88.88671875 80.765625 C88.09702086 90.61362222 85.69399518 99.85296432 82 109 C81.67 109 81.34 109 81 109 C81.46276534 104.37234655 81.93184754 101.13630492 84 97 C84.22218817 95.60926661 84.40642772 94.21219582 84.5625 92.8125 C85 89 85 89 86 88 C86.23075082 86.65252916 86.41153063 85.29622435 86.5625 83.9375 C86.706875 82.638125 86.85125 81.33875 87 80 C85.13794922 80.2165625 85.13794922 80.2165625 83.23828125 80.4375 C81.59637095 80.62514689 79.95444292 80.81263874 78.3125 81 C77.49587891 81.09539062 76.67925781 81.19078125 75.83789062 81.2890625 C71.87139948 81.73870522 67.99997537 82.13034543 64 82 C63.67 80.02 63.34 78.04 63 76 C51.78 75.34 40.56 74.68 29 74 C28.34 80.27 27.68 86.54 27 93 C8.49038462 93.16826923 8.49038462 93.16826923 2 92 C0.12717434 90.12717434 0.75705189 86.95683664 0.68359375 84.453125 C0.66276733 83.75428192 0.64194092 83.05543884 0.6204834 82.3354187 C0.55318535 79.97373796 0.49474557 77.61194471 0.4375 75.25 C0.41632111 74.43819275 0.39514221 73.6263855 0.37332153 72.78997803 C-0.24717785 48.53206429 -0.08315738 24.26347491 0 0 Z " fill="#3DAEDE" transform="translate(347,171)"/>
<path d="M0 0 C-0.875 7.875 -0.875 7.875 -2 9 C-2.53821792 11.73631801 -2.96478036 14.4842058 -3.40234375 17.23828125 C-3.96668449 19.84605185 -4.8171841 21.6389706 -6 24 C-6.43098753 25.90485849 -6.80392764 27.82356582 -7.125 29.75 C-7.29257812 30.73484375 -7.46015625 31.7196875 -7.6328125 32.734375 C-7.81457031 33.85585938 -7.81457031 33.85585938 -8 35 C-8.66 35 -9.32 35 -10 35 C-10.13535156 35.65484375 -10.27070313 36.3096875 -10.41015625 36.984375 C-12.03172249 43.85903905 -14.63306094 49.29619617 -18.37890625 55.2734375 C-19.88169987 57.80102773 -20.99267947 60.2436503 -22 63 C-22.66 63 -23.32 63 -24 63 C-24.66 66.3 -25.32 69.6 -26 73 C-25.34 73 -24.68 73 -24 73 C-22.67138672 74.60473633 -22.67138672 74.60473633 -21.1796875 76.83203125 C-20.64472656 77.63060547 -20.10976563 78.42917969 -19.55859375 79.25195312 C-19.00300781 80.09693359 -18.44742188 80.94191406 -17.875 81.8125 C-17.31167969 82.64587891 -16.74835938 83.47925781 -16.16796875 84.33789062 C-15.63558594 85.14033203 -15.10320312 85.94277344 -14.5546875 86.76953125 C-13.81968018 87.87711792 -13.81968018 87.87711792 -13.06982422 89.00708008 C-12 91 -12 91 -12 94 C-35.21938586 95.18735496 -61.75215079 87.9050793 -79.4375 72.5 C-80.97800227 71.02020718 -82.50031672 69.52114565 -84 68 C-84.66902344 67.34128906 -85.33804687 66.68257813 -86.02734375 66.00390625 C-93.90554665 57.72596366 -95 50.67814473 -95 39 C-73.22 39 -51.44 39 -29 39 C-28.01 35.7 -27.02 32.4 -26 29 C-25.67 28.34 -25.34 27.68 -25 27 C-24.84655791 25.11527141 -24.75040429 23.22572126 -24.68359375 21.3359375 C-24.64169922 20.21445312 -24.59980469 19.09296875 -24.55664062 17.9375 C-24.51732422 16.761875 -24.47800781 15.58625 -24.4375 14.375 C-24.37272461 12.59996094 -24.37272461 12.59996094 -24.30664062 10.7890625 C-24.20032574 7.85949672 -24.09829358 4.92984412 -24 2 C-20.56416794 1.46773826 -17.12615705 0.95116762 -13.6875 0.4375 C-12.71103516 0.28603516 -11.73457031 0.13457031 -10.72851562 -0.02148438 C-9.32182617 -0.2293457 -9.32182617 -0.2293457 -7.88671875 -0.44140625 C-7.02264404 -0.57232666 -6.15856934 -0.70324707 -5.26831055 -0.83813477 C-3 -1 -3 -1 0 0 Z " fill="#D9DBDB" transform="translate(435,251)"/>
<path d="M0 0 C0.95777344 0.00902344 1.91554688 0.01804687 2.90234375 0.02734375 C3.61519531 0.03894531 4.32804687 0.05054687 5.0625 0.0625 C2.73171819 4.43643522 0.41453951 8.71509774 -2.5625 12.6875 C-5.45133446 16.63679267 -8.11220726 20.61659838 -7.75 25.6875 C-7.481875 26.47125 -7.21375 27.255 -6.9375 28.0625 C-6.64875 28.92875 -6.36 29.795 -6.0625 30.6875 C-5.11658599 33.06563224 -5.11658599 33.06563224 -3.47265625 34.41796875 C-1.60293818 36.42089828 -1.04394038 38.14133876 -0.25 40.75 C0.00136719 41.55824219 0.25273437 42.36648437 0.51171875 43.19921875 C0.69347656 43.81410156 0.87523437 44.42898437 1.0625 45.0625 C1.7225 45.0625 2.3825 45.0625 3.0625 45.0625 C4.04111321 47.25320268 5.01623558 49.44526659 5.984375 51.640625 C6.84019769 53.56312525 7.72722971 55.47172698 8.625 57.375 C10.26319418 61.57732419 11.27488086 65.77534798 12.3046875 70.16015625 C12.93536458 72.57558445 13.68159289 74.66688443 14.6875 76.9375 C17.00546338 82.64138895 16.81509805 88.98835548 17.0625 95.0625 C13.97867386 94.75474454 10.89554635 94.4404641 7.8125 94.125 C6.93980469 94.03798828 6.06710937 93.95097656 5.16796875 93.86132812 C4.32363281 93.77431641 3.47929687 93.68730469 2.609375 93.59765625 C1.83432617 93.519104 1.05927734 93.44055176 0.26074219 93.35961914 C-1.86373038 93.07247086 -3.87046525 92.62455228 -5.9375 92.0625 C-5.88513184 90.92820557 -5.83276367 89.79391113 -5.77880859 88.62524414 C-5.59664184 84.38240708 -5.48260626 80.13990787 -5.38818359 75.89428711 C-5.33815204 74.06361625 -5.27009714 72.23333986 -5.18310547 70.40405273 C-5.06056144 67.75926431 -5.00485233 65.11978268 -4.9609375 62.47265625 C-4.90932465 61.66603043 -4.85771179 60.8594046 -4.80453491 60.02833557 C-4.79936333 54.68681446 -6.40226054 51.891007 -10.10351562 48.04296875 C-16.47786446 42.87594443 -22.30209054 42.81240286 -30.2578125 42.96484375 C-31.61117708 42.9591782 -32.96453026 42.94955077 -34.31784058 42.93617249 C-37.84659376 42.91175069 -41.37290306 42.94044192 -44.90142822 42.98095703 C-48.51509396 43.01279999 -52.12846543 42.9933729 -55.7421875 42.97851562 C-62.8078184 42.95689414 -69.87214217 42.99149066 -76.9375 43.0625 C-73.69042024 31.20424104 -66.67289659 23.25735113 -56.13525391 16.99072266 C-45.88039724 11.16085352 -35.88671134 6.85477664 -24.4375 3.9375 C-23.43074219 3.67324219 -22.42398438 3.40898438 -21.38671875 3.13671875 C-14.23609267 1.29048895 -7.42109482 -0.09161845 0 0 Z " fill="#D9D9D9" transform="translate(417.9375,98.9375)"/>
<path d="M0 0 C-2.6968387 3.11397563 -6.09953906 4.91710295 -9.625 6.9375 C-43.46084038 26.81849262 -78.0578936 55.64090823 -102.1328125 86.62890625 C-104.17034153 89.21631236 -106.33920115 91.63334015 -108.5625 94.0625 C-112.38758435 98.2573201 -115.96046725 102.60448315 -119.46875 107.06640625 C-121 109 -121 109 -122 110 C-124.94225154 110.08236474 -127.88077554 110.12548138 -130.82421875 110.1328125 C-134.76675651 111.20937263 -136.39742024 112.7053495 -138.87231445 115.89111328 C-140.87370901 119.63392475 -140.45524517 123.23669391 -140.25 127.375 C-140.20466121 138.00694575 -143.92212513 144.58586968 -149.83105469 153.15087891 C-151.61167634 155.96759328 -152.78906643 158.90049124 -154 162 C-154.66 162 -155.32 162 -156 162 C-154.79695479 153.4937739 -152.88179135 145.44279638 -150.3125 137.25 C-149.95873291 136.11401367 -149.60496582 134.97802734 -149.24047852 133.80761719 C-146.40269536 124.88760128 -143.08677665 116.41286905 -139 108 C-138.68611328 107.34483398 -138.37222656 106.68966797 -138.04882812 106.01464844 C-132.54276927 94.54276927 -132.54276927 94.54276927 -130 92 C-129.32482426 90.33676221 -128.65897129 88.66972425 -128 87 C-126.15926052 83.89301935 -124.06892076 80.95887781 -122 78 C-121.08154297 76.67548828 -121.08154297 76.67548828 -120.14453125 75.32421875 C-116.09757961 69.61325106 -111.77367537 64.35027336 -107.0234375 59.2109375 C-105.41489991 57.45334623 -103.91074626 55.68124862 -102.4375 53.8125 C-99.92798586 50.91690676 -97.3084316 48.49540802 -94.38671875 46.02734375 C-92.67399226 44.57250734 -90.99230445 43.08082822 -89.33203125 41.56640625 C-79.78606179 32.96835378 -69.09121832 26.42080711 -58 20 C-57.15501953 19.51015625 -56.31003906 19.0203125 -55.43945312 18.515625 C-45.12606856 12.61763289 -35.58660744 8.59964895 -24 6 C-20.246194 4.87995744 -16.55024121 3.63644554 -12.92578125 2.1484375 C-8.35797529 0.28651279 -4.94066038 -0.30879127 0 0 Z " fill="#F7CD0C" transform="translate(229,35)"/>
<path d="M0 0 C-1.20898845 3.62696535 -2.08773241 3.94703025 -5.296875 5.84765625 C-6.61171875 6.63172852 -6.61171875 6.63172852 -7.953125 7.43164062 C-8.87609375 7.96982422 -9.7990625 8.50800781 -10.75 9.0625 C-12.11125 9.87557617 -12.11125 9.87557617 -13.5 10.70507812 C-17.59755856 13.12826882 -21.53699508 15.31422926 -26 17 C-26 17.66 -26 18.32 -26 19 C-28.64 19.66 -31.28 20.32 -34 21 C-34 21.66 -34 22.32 -34 23 C-35.02996094 23.36351562 -36.05992187 23.72703125 -37.12109375 24.1015625 C-37.80034912 24.34148926 -38.47960449 24.58141602 -39.17944336 24.82861328 C-40.70712283 25.36740563 -42.2352953 25.90480186 -43.76391602 26.44091797 C-47.61542573 27.79380055 -51.45802502 29.16271048 -55.28125 30.59375 C-65.3679206 34.33556032 -75.4385694 36.97938055 -86 39 C-87.2070459 39.25225342 -88.4140918 39.50450684 -89.65771484 39.7644043 C-100.69363902 41.98378499 -111.38775826 42.51400064 -122.625 42.4375 C-123.50498657 42.4361203 -124.38497314 42.4347406 -125.29162598 42.43331909 C-143.73845283 42.38025835 -161.90837159 40.7204892 -180 37 C-180 36.34 -180 35.68 -180 35 C-177.13454625 34.19638273 -174.49369086 33.83567005 -171.52270508 33.71875 C-170.64532181 33.68201172 -169.76793854 33.64527344 -168.8639679 33.60742188 C-167.9253038 33.57197266 -166.98663971 33.53652344 -166.01953125 33.5 C-164.03190072 33.41667445 -162.04427052 33.33334088 -160.05664062 33.25 C-156.92265689 33.12372317 -153.78861347 32.99905451 -150.65454102 32.875 C-147.63019719 32.75388431 -144.60612628 32.62715305 -141.58203125 32.5 C-140.63729446 32.46455078 -139.69255768 32.42910156 -138.7191925 32.39257812 C-137.85126572 32.35583984 -136.98333893 32.31910156 -136.08911133 32.28125 C-135.32174149 32.25095703 -134.55437164 32.22066406 -133.76374817 32.18945312 C-131.97470127 32.18388225 -131.97470127 32.18388225 -131 31 C-127.36046804 30.72929101 -123.72756476 30.55354483 -120.08203125 30.39453125 C-116.22526907 30.57300905 -116.22526907 30.57300905 -113 29 C-110.52249109 28.45143004 -108.05730679 27.9560007 -105.5625 27.5 C-104.83184326 27.36400391 -104.10118652 27.22800781 -103.34838867 27.08789062 C-99.50583087 26.39102069 -95.70893421 25.8096504 -91.8125 25.5 C-86.81393351 25.08904403 -82.06939142 23.92870966 -77.203125 22.74609375 C-74.40856304 22.09516529 -71.64361496 21.58093109 -68.8125 21.125 C-64.06684865 20.28595723 -59.44366142 19.104727 -54.8046875 17.8125 C-54.02107346 17.59425568 -53.23745941 17.37601135 -52.43009949 17.15115356 C-44.42394097 14.8875249 -36.52902392 12.31691929 -28.64575195 9.66064453 C-26.2768127 8.8629835 -23.90521035 8.07364183 -21.53320312 7.28515625 C-19.99723569 6.77131179 -18.46142237 6.25700636 -16.92578125 5.7421875 C-15.88349113 5.39521317 -15.88349113 5.39521317 -14.82014465 5.04122925 C-11.52380486 3.92663106 -8.31506638 2.73169938 -5.12963867 1.32861328 C-2 0 -2 0 0 0 Z " fill="#F4D00D" transform="translate(383,366)"/>
<path d="M0 0 C0.495 18.315 0.495 18.315 1 37 C-3.063125 36.855625 -7.12625 36.71125 -11.3125 36.5625 C-12.59036377 36.51939697 -13.86822754 36.47629395 -15.18481445 36.43188477 C-16.69628052 36.3747229 -16.69628052 36.3747229 -18.23828125 36.31640625 C-19.26993408 36.27974854 -20.30158691 36.24309082 -21.36450195 36.20532227 C-24 36 -24 36 -27 35 C-27.02946035 31.37501758 -27.04695131 27.75006668 -27.0625 24.125 C-27.07087891 23.11179688 -27.07925781 22.09859375 -27.08789062 21.0546875 C-27.10830197 14.68634719 -27.06430278 8.29650457 -26 2 C-24.07378631 0.07378631 -20.63192984 0.59921237 -18.0625 0.4375 C-16.16177734 0.31181641 -16.16177734 0.31181641 -14.22265625 0.18359375 C-9.48585088 -0.02235431 -4.74128039 0 0 0 Z " fill="#3CA0D5" transform="translate(150,179)"/>
<path d="M0 0 C11.25 1.125 11.25 1.125 15.1328125 1.75390625 C15.87934082 1.8732251 16.62586914 1.99254395 17.39501953 2.11547852 C18.29591309 2.26299561 19.19680664 2.4105127 20.125 2.5625 C23.05375 3.036875 25.9825 3.51125 29 4 C29 12.91 29 21.82 29 31 C24.9575 31.66 20.915 32.32 16.75 33 C15.48124023 33.20882812 14.21248047 33.41765625 12.90527344 33.6328125 C11.90012695 33.79523438 10.89498047 33.95765625 9.859375 34.125 C8.83295898 34.29257812 7.80654297 34.46015625 6.74902344 34.6328125 C4 35 4 35 0 35 C0 23.45 0 11.9 0 0 Z " fill="#36B1D9" transform="translate(236,225)"/>
<path d="M0 0 C7.875 0 7.875 0 11.83984375 0.65625 C12.59386475 0.77806641 13.34788574 0.89988281 14.12475586 1.02539062 C15.05296143 1.18201172 15.98116699 1.33863281 16.9375 1.5 C19.928125 1.995 22.91875 2.49 26 3 C26 12.24 26 21.48 26 31 C17.25952237 30.20541112 8.68383888 29.1950237 0 28 C0 18.76 0 9.52 0 0 Z " fill="#3E9FD8" transform="translate(235,171)"/>
<path d="M0 0 C0.33 0 0.66 0 1 0 C1 1.65 1 3.3 1 5 C1.66 5 2.32 5 3 5 C4.32861328 6.60473633 4.32861328 6.60473633 5.8203125 8.83203125 C6.62275391 10.02989258 6.62275391 10.02989258 7.44140625 11.25195312 C7.99699219 12.09693359 8.55257813 12.94191406 9.125 13.8125 C9.68832031 14.64587891 10.25164062 15.47925781 10.83203125 16.33789062 C11.63060547 17.54155273 11.63060547 17.54155273 12.4453125 18.76953125 C12.93531738 19.50792236 13.42532227 20.24631348 13.93017578 21.00708008 C15 23 15 23 15 26 C5.65914258 26.47765748 -6.40084193 26.29957904 -15 22 C-14.26873714 18.10833671 -12.4638185 16.07840745 -9.828125 13.1484375 C-6.86033385 9.66064876 -4.27784317 5.89797615 -1.63671875 2.16015625 C-1.09660156 1.44730469 -0.55648438 0.73445313 0 0 Z " fill="#E38F1F" transform="translate(408,319)"/>
<path d="M0 0 C-2.30346229 4.32266753 -4.56775099 8.54990656 -7.5625 12.4375 C-10.62865937 16.55158726 -12.27295533 21.20479777 -14 26 C-15.90909692 23.63271982 -17.80346455 21.25754527 -19.6484375 18.83984375 C-23.52698485 13.74724676 -23.52698485 13.74724676 -27.9375 9.125 C-30 7 -30 7 -30 4 C-19.79064132 1.33450241 -10.5616052 -0.17188869 0 0 Z " fill="#EA8D1B" transform="translate(423,99)"/>
<path d="M0 0 C0.12375 0.639375 0.2475 1.27875 0.375 1.9375 C0.58125 2.618125 0.7875 3.29875 1 4 C1.66 4.33 2.32 4.66 3 5 C2.50830322 5.4110498 2.01660645 5.82209961 1.51000977 6.24560547 C-0.35444709 8.41181192 -0.30740421 9.26405133 -0.16015625 12.0703125 C0.09975254 24.94351783 -2.56321429 32.61612478 -9.83105469 43.15087891 C-11.61167634 45.96759328 -12.78906643 48.90049124 -14 52 C-14.66 52 -15.32 52 -16 52 C-14.795983 43.44301653 -12.84261936 35.36232512 -10.25 27.125 C-9.7230957 25.42851318 -9.7230957 25.42851318 -9.18554688 23.69775391 C-6.60787658 15.55189475 -3.69825521 7.70469835 0 0 Z " fill="#E6C617" transform="translate(89,145)"/>
<path d="M0 0 C0.99 0.495 0.99 0.495 2 1 C-4.27530773 6.33750339 -10.55698576 11.66336784 -16.9375 16.875 C-17.82824219 17.60332031 -18.71898437 18.33164063 -19.63671875 19.08203125 C-21.00630502 20.19354672 -22.38118744 21.29872305 -23.76953125 22.38671875 C-26.42393991 24.4948375 -28.65900055 26.71797537 -30.82421875 29.3046875 C-36.38876126 35.72189675 -42.52653692 41.59423901 -48.5625 47.5625 C-50.96263895 49.93579676 -53.35926858 52.31256022 -55.75390625 54.69140625 C-56.2915712 55.22077286 -56.82923615 55.75013947 -57.38319397 56.29554749 C-61.13682227 60.02521685 -64.60977985 63.93803109 -68 68 C-68.66 67.67 -69.32 67.34 -70 67 C-69.28714844 66.2265625 -68.57429688 65.453125 -67.83984375 64.65625 C-66.87234544 63.60421301 -65.90490043 62.552127 -64.9375 61.5 C-64.47150391 60.9946875 -64.00550781 60.489375 -63.52539062 59.96875 C-60.91306376 57.12540103 -58.35466707 54.24976994 -55.84375 51.31640625 C-51.47934757 46.31192339 -46.78730594 41.6372302 -42.0847168 36.9543457 C-40.56508332 35.4400742 -39.05087483 33.9205257 -37.53710938 32.40039062 C-32.19906984 27.05776955 -26.79264804 21.85306127 -21 17 C-20.29238525 16.40695068 -19.58477051 15.81390137 -18.85571289 15.20288086 C-16.66099993 13.37633203 -14.45729575 11.56131552 -12.25 9.75 C-11.50878906 9.13898438 -10.76757812 8.52796875 -10.00390625 7.8984375 C-6.71595838 5.19488252 -3.41990055 2.53599947 0 0 Z " fill="#769BB7" transform="translate(191,60)"/>
<path d="M0 0 C0.33 0 0.66 0 1 0 C1.25651171 57.90455794 1.25651171 57.90455794 -2 85 C-2.33 85 -2.66 85 -3 85 C-3.64507422 56.593578 -1.79627745 28.33805766 0 0 Z " fill="#174254" transform="translate(87,173)"/>
<path d="M0 0 C5.94 0 11.88 0 18 0 C19.28317892 3.84953676 19.06643637 6.94738135 19 11 C12.23798622 9.17242871 3.96118922 5.94178383 0 0 Z " fill="#D4D8DA" transform="translate(354,172)"/>
<path d="M0 0 C0.66 0.33 1.32 0.66 2 1 C1.04738281 1.80824219 0.09476563 2.61648437 -0.88671875 3.44921875 C-2.15374106 4.52853405 -3.42066281 5.60796741 -4.6875 6.6875 C-5.62625977 7.48317383 -5.62625977 7.48317383 -6.58398438 8.29492188 C-10.21545131 11.39402716 -13.66506472 14.57773417 -17 18 C-20.66666667 21.66666667 -24.33333333 25.33333333 -28 29 C-28.89074219 29.90105469 -29.78148438 30.80210938 -30.69921875 31.73046875 C-32.70413007 33.70814868 -34.70145972 35.38250869 -37 37 C-34.55116172 31.42984453 -30.12044868 27.37951881 -26 23 C-25.15953125 22.10539062 -24.3190625 21.21078125 -23.453125 20.2890625 C-17.30870143 13.94467248 -10.78610318 8.46680164 -3.7734375 3.1171875 C-1.22385313 1.26818424 -1.22385313 1.26818424 0 0 Z " fill="#3C5CA0" transform="translate(142,58)"/>
<path d="M0 0 C-1.36396587 4.09189762 -3.34848983 4.61547327 -7.0625 6.6875 C-8.16722656 7.31011719 -9.27195312 7.93273437 -10.41015625 8.57421875 C-11.26480469 9.04472656 -12.11945313 9.51523437 -13 10 C-13.33 9.01 -13.66 8.02 -14 7 C-14.67579102 7.24758057 -15.35158203 7.49516113 -16.04785156 7.75024414 C-19.11130305 8.86549413 -22.18045514 9.96413837 -25.25 11.0625 C-26.31347656 11.45244141 -27.37695312 11.84238281 -28.47265625 12.24414062 C-30.00986328 12.79038086 -30.00986328 12.79038086 -31.578125 13.34765625 C-32.99206543 13.85824585 -32.99206543 13.85824585 -34.43457031 14.37915039 C-37.16369732 15.03961575 -38.37078111 14.77005033 -41 14 C-39.88963379 13.61142822 -38.77926758 13.22285645 -37.63525391 12.82250977 C-33.52361939 11.38325442 -29.41259639 9.9422594 -25.30175781 8.50073242 C-23.52100036 7.87655777 -21.74007646 7.2528578 -19.95898438 6.62963867 C-17.40190636 5.73480374 -14.84542786 4.83827473 -12.2890625 3.94140625 C-11.49005524 3.6622084 -10.69104797 3.38301056 -9.86782837 3.09535217 C-1.05721957 0 -1.05721957 0 0 0 Z " fill="#92D56C" transform="translate(383,366)"/>
<path d="M0 0 C0.66 0.33 1.32 0.66 2 1 C-2.29881556 6.17421072 -6.89791186 11.03196069 -11.625 15.8125 C-12.17502686 16.37541748 -12.72505371 16.93833496 -13.29174805 17.51831055 C-16.31795863 20.55180772 -19.17469312 22.97358279 -23 25 C-21.4975457 21.4567789 -19.43747735 19.22928476 -16.6875 16.5625 C-15.87925781 15.77230469 -15.07101563 14.98210937 -14.23828125 14.16796875 C-13.49964844 13.45253906 -12.76101562 12.73710938 -12 12 C-11.13375 11.13375 -10.2675 10.2675 -9.375 9.375 C-6.25 6.25 -3.125 3.125 0 0 Z " fill="#DCC230" transform="translate(140,76)"/>
<path d="M0 0 C0 0.66 0 1.32 0 2 C-1.98 2.66 -3.96 3.32 -6 4 C-6 3.67 -6 3.34 -6 3 C-13.43033761 3.31618458 -19.21507434 5.07676494 -26 8 C-27.61641508 8.6267732 -29.24129611 9.23228111 -30.875 9.8125 C-31.57367188 10.06644531 -32.27234375 10.32039063 -32.9921875 10.58203125 C-35 11 -35 11 -39 10 C-36.03 9.34 -33.06 8.68 -30 8 C-30 7.34 -30 6.68 -30 6 C-29.19175781 5.80664062 -28.38351563 5.61328125 -27.55078125 5.4140625 C-26.48214844 5.15367188 -25.41351563 4.89328125 -24.3125 4.625 C-23.25675781 4.36976562 -22.20101562 4.11453125 -21.11328125 3.8515625 C-18.29294964 3.08012926 -15.69470882 2.12279534 -13 1 C-8.63395428 -0.18001236 -4.49224575 -0.07613976 0 0 Z " fill="#93999A" transform="translate(234,33)"/>
<path d="M0 0 C0 0.33 0 0.66 0 1 C-3.49992696 1.79706768 -6.7142231 2.11863027 -10.30078125 2.09765625 C-11.27724609 2.09443359 -12.25371094 2.09121094 -13.25976562 2.08789062 C-14.26716797 2.07951172 -15.27457031 2.07113281 -16.3125 2.0625 C-17.33923828 2.05798828 -18.36597656 2.05347656 -19.42382812 2.04882812 C-21.94927882 2.03708184 -24.47460905 2.02065565 -27 2 C-27 2.66 -27 3.32 -27 4 C-26.01 4.33 -25.02 4.66 -24 5 C-26.97 4.67 -29.94 4.34 -33 4 C-33 3.34 -33 2.68 -33 2 C-30.06542348 1.17396794 -27.33965724 0.82165377 -24.296875 0.68359375 C-22.94916016 0.62075195 -22.94916016 0.62075195 -21.57421875 0.55664062 C-20.64222656 0.51732422 -19.71023437 0.47800781 -18.75 0.4375 C-17.83347656 0.39431641 -16.91695312 0.35113281 -15.97265625 0.30664062 C-10.6425384 0.06712748 -5.33527788 -0.04383444 0 0 Z " fill="#89D972" transform="translate(236,399)"/>
<path d="M0 0 C6.02487844 -0.21908649 11.17549506 0.50601953 17 2 C17.77472656 2.19078125 18.54945313 2.3815625 19.34765625 2.578125 C21.23382399 3.04384543 23.11722494 3.52074817 25 4 C25 4.33 25 4.66 25 5 C19.53671185 5.33448703 14.48614115 4.67265287 9.125 3.625 C8.12521118 3.43587036 8.12521118 3.43587036 7.10522461 3.24291992 C2.24753818 2.24753818 2.24753818 2.24753818 0 0 Z " fill="#0F958B" transform="translate(210,418)"/>
<path d="M0 0 C0.99 0.33 1.98 0.66 3 1 C1.29231534 2.70768466 -0.41559272 4.41513286 -2.125 6.12109375 C-3.65534608 7.65462805 -5.17326752 9.20055281 -6.6875 10.75 C-8.69974483 12.70785984 -10.70789225 14.38703529 -13 16 C-11.43636055 12.34584258 -9.17824958 9.7880312 -6.5 6.875 C-5.7059375 6.00617188 -4.911875 5.13734375 -4.09375 4.2421875 C-2.75256247 2.80591578 -1.38954317 1.38954317 0 0 Z " fill="#4068AF" transform="translate(118,79)"/>
<path d="M0 0 C1.79936071 5.39808212 1.72926101 10.81591661 -0.5 16 C-0.995 16.99 -1.49 17.98 -2 19 C-2.66 19 -3.32 19 -4 19 C-3.00318287 12.54189755 -1.98363508 6.23428168 0 0 Z " fill="#ADBF62" transform="translate(77,178)"/>
<path d="M0 0 C-1.36396587 4.09189762 -3.34848983 4.61547327 -7.0625 6.6875 C-8.16722656 7.31011719 -9.27195312 7.93273437 -10.41015625 8.57421875 C-11.26480469 9.04472656 -12.11945313 9.51523437 -13 10 C-12.625 8.0703125 -12.625 8.0703125 -12 6 C-10 4.875 -10 4.875 -8 4 C-7.67 3.34 -7.34 2.68 -7 2 C-2.66666667 0 -2.66666667 0 0 0 Z " fill="#BED241" transform="translate(383,366)"/>
<path d="M0 0 C1.74023438 0.08701172 1.74023438 0.08701172 3.515625 0.17578125 C5.27132812 0.24345703 5.27132812 0.24345703 7.0625 0.3125 C8.40054688 0.39951172 8.40054688 0.39951172 9.765625 0.48828125 C9.765625 0.81828125 9.765625 1.14828125 9.765625 1.48828125 C9.09015625 1.5140625 8.4146875 1.53984375 7.71875 1.56640625 C2.00798568 1.83149853 2.00798568 1.83149853 -2.859375 4.55078125 C-3.313125 5.19015625 -3.766875 5.82953125 -4.234375 6.48828125 C-5.224375 6.15828125 -6.214375 5.82828125 -7.234375 5.48828125 C-5.04580876 2.04833185 -4.13091003 0.62362772 0 0 Z " fill="#3F3402" transform="translate(98.234375,144.51171875)"/>
<path d="M0 0 C0.66 0.33 1.32 0.66 2 1 C-1.63 4.63 -5.26 8.26 -9 12 C-9 9 -9 9 -6.75 6.5625 C-5.8425 5.716875 -4.935 4.87125 -4 4 C-3.236875 3.236875 -2.47375 2.47375 -1.6875 1.6875 C-1.130625 1.130625 -0.57375 0.57375 0 0 Z " fill="#C5D1DE" transform="translate(357,119)"/>
<path d="M0 0 C3.63 0 7.26 0 11 0 C7 3 7 3 3.25 2.6875 C2.1775 2.460625 1.105 2.23375 0 2 C0 1.34 0 0.68 0 0 Z " fill="#E5D11B" transform="translate(209,401)"/>
<path d="M0 0 C-2.12780579 2.34058637 -4.11562221 3.70700306 -7 5 C-7 4.01 -7 3.02 -7 2 C-8.32 1.67 -9.64 1.34 -11 1 C-7.32589215 -0.17571451 -3.83070817 -0.07366746 0 0 Z " fill="#DCBF32" transform="translate(229,35)"/>
<path d="M0 0 C0.185625 0.9590625 0.185625 0.9590625 0.375 1.9375 C0.684375 2.9584375 0.684375 2.9584375 1 4 C1.66 4.33 2.32 4.66 3 5 C1.35 6.32 -0.3 7.64 -2 9 C-2.33 8.34 -2.66 7.68 -3 7 C-2.06421005 4.64018187 -1.06652192 2.30368736 0 0 Z " fill="#D4C02E" transform="translate(89,145)"/>
</svg>
